<?xml version="1.0" standalone="no"?>
<!DOCTYPE svg PUBLIC "-//W3C//DTD SVG 20010904//EN"
 "http://www.w3.org/TR/2001/REC-SVG-20010904/DTD/svg10.dtd">
<svg version="1.0" xmlns="http://www.w3.org/2000/svg"
 width="792.000000pt" height="792.000000pt" viewBox="0 0 792.000000 792.000000"
 preserveAspectRatio="xMidYMid meet">
<metadata>
Created by potrace 1.11, written by Peter Selinger 2001-2013
</metadata>
<g transform="translate(0.000000,792.000000) scale(0.100000,-0.100000)"
fill="#000000" stroke="none">
<path d="M1802 4926 c-29 -7 -77 -30 -107 -50 -131 -91 -189 -236 -162 -406
l8 -45 -467 -231 -468 -230 -41 42 c-187 186 -515 37 -501 -228 12 -238 278
-366 471 -227 22 16 49 42 60 59 14 21 25 28 41 24 11 -3 252 -95 535 -204
l514 -198 3 -33 c6 -67 32 -127 72 -163 143 -129 364 -32 364 159 0 129 -95
219 -227 214 -61 -2 -129 -35 -158 -76 -14 -19 -20 -18 -199 52 -102 39 -194
75 -205 79 -11 4 -47 18 -80 31 -33 13 -132 51 -220 84 -88 33 -173 66 -190
72 -16 7 -66 26 -109 43 l-79 31 -3 81 -2 81 466 230 467 229 25 -31 c122
-156 366 -187 525 -67 121 92 174 224 151 376 -8 59 -58 156 -103 201 -40 40
-124 92 -165 101 -54 13 -167 13 -216 0z"/>
<path d="M2918 4285 c-109 -29 -189 -107 -228 -225 -30 -89 -25 -221 12 -301
79 -174 271 -248 470 -181 l53 17 -4 45 c-2 25 -4 53 -5 63 0 13 -6 17 -21 12
-95 -27 -128 -32 -181 -30 -102 5 -161 54 -188 157 -37 145 24 288 134 318 51
14 133 8 203 -14 26 -8 47 -12 48 -8 1 10 8 51 13 84 3 14 0 31 -7 36 -43 34
-213 49 -299 27z"/>
<path d="M3392 4281 c-12 -7 -14 -704 -2 -711 4 -3 35 -4 68 -2 l59 4 1 354
c0 195 -3 354 -7 355 -30 5 -112 5 -119 0z"/>
<path d="M3664 4117 l-125 -169 51 -79 c28 -44 84 -130 125 -191 l73 -110 56
0 c31 0 65 1 76 1 17 1 12 13 -38 89 -95 141 -178 266 -185 278 -4 7 49 87
118 179 69 93 125 169 125 169 0 1 -34 1 -76 1 l-75 0 -125 -168z"/>
<path d="M4069 4280 c-2 -20 0 -702 3 -705 5 -5 39 -7 86 -6 l42 1 0 358 0
357 -65 0 c-36 1 -65 -2 -66 -5z"/>
<path d="M4632 3927 l3 -359 185 0 c102 0 206 0 233 1 l47 1 0 64 0 64 -127 0
c-71 1 -146 1 -168 1 l-41 1 1 88 1 87 115 2 c62 1 120 2 127 2 9 1 12 18 10
64 l-3 62 -122 0 c-68 0 -123 2 -124 5 -3 15 -5 126 -2 135 2 6 65 10 163 10
l160 0 0 65 0 65 -230 0 -230 1 2 -359z"/>
<path d="M5185 4282 c-2 -2 10 -40 27 -85 16 -45 43 -120 60 -167 89 -252 161
-446 169 -454 11 -12 148 -11 159 1 3 4 16 35 28 68 11 33 55 159 97 280 42
121 85 243 95 270 36 98 39 91 -36 91 -47 -1 -68 -5 -73 -16 -5 -8 -41 -105
-80 -215 -79 -217 -101 -276 -111 -288 -4 -4 -50 111 -104 255 l-97 263 -65 0
c-36 0 -67 -1 -69 -3z"/>
<path d="M5984 4281 c-7 -8 -4 -711 4 -711 10 -1 435 -1 450 -1 8 1 12 21 12
66 l0 65 -160 -2 c-88 -1 -163 1 -166 5 -6 5 -7 39 -5 138 l1 36 113 1 c61 0
118 1 125 1 9 1 12 18 10 64 l-3 62 -122 0 c-121 -1 -123 0 -124 22 -1 30 -1
99 0 116 1 9 40 12 159 12 l157 0 3 65 3 65 -226 0 c-124 1 -228 -1 -231 -4z"/>
<path d="M6610 3928 l0 -358 38 -1 c20 0 47 -2 60 -3 13 -2 26 2 29 7 4 6 6
115 6 244 -1 222 0 232 17 210 9 -12 83 -121 163 -242 136 -205 148 -221 174
-219 15 1 40 3 54 3 l27 1 -2 358 -1 357 -65 0 -65 0 -2 -210 c-1 -115 -2
-217 -2 -225 -1 -8 -68 86 -151 210 l-149 225 -66 0 -65 1 0 -358z"/>
<path d="M7324 4281 c-2 -2 -4 -32 -4 -66 l0 -61 100 1 100 0 0 -292 c0 -227
3 -293 13 -294 75 -5 110 -2 114 8 3 7 6 139 6 295 l2 282 100 1 100 0 1 55
c0 30 -2 60 -5 65 -6 11 -517 16 -527 6z"/>
</g>
</svg>
